<svg id="Layer_1" height="512" viewBox="0 0 128 128" width="512" xmlns="http://www.w3.org/2000/svg" data-name="Layer 1"><circle cx="78.579" cy="52.33" r="4" transform="matrix(.6 -.8 .8 .6 -10.443 83.765)"/><circle cx="91.598" cy="50.581" r="4" transform="matrix(.6 -.8 .8 .6 -3.84 93.479)"/><circle cx="85.995" cy="62.08" r="4" transform="matrix(.6 -.8 .8 .6 -15.276 93.594)"/><circle cx="76.082" cy="70.874" r="4" transform="matrix(.6 -.8 .8 .6 -26.273 89.18)"/><circle cx="68.754" cy="60.33" r="4" transform="matrix(.6 -.8 .8 .6 -20.768 79.105)"/><circle cx="64" cy="75.595" r="4" transform="matrix(.6 -.8 .8 .6 -34.878 81.405)"/><path d="m103.808 119.75h-31.034c3.35-14.308 8.115-23.575 14.182-27.535a1.749 1.749 0 0 0 .794-1.465v-3.89a1.75 1.75 0 0 0 -1.75-1.75h-7.145a41.558 41.558 0 1 0 -29.711 0h-7.144a1.75 1.75 0 0 0 -1.75 1.75v3.89a1.749 1.749 0 0 0 .793 1.465c6.067 3.96 10.832 13.227 14.182 27.535h-31.033a1.75 1.75 0 1 0 0 3.5h79.615a1.75 1.75 0 0 0 0-3.5zm-77.866-73.442a38.058 38.058 0 1 1 38.058 38.057 38.1 38.1 0 0 1 -38.058-38.057zm32.882 73.442c-3.435-15.076-8.5-25.129-15.074-29.918v-1.222h40.5v1.222c-6.572 4.789-11.639 14.842-15.073 29.918z"/></svg>